<?xml version="1.0" standalone="no"?><!DOCTYPE svg PUBLIC "-//W3C//DTD SVG 1.1//EN" "http://www.w3.org/Graphics/SVG/1.1/DTD/svg11.dtd"><svg t="1501227540336" class="icon" style="" viewBox="0 0 1025 1024" version="1.1" xmlns="http://www.w3.org/2000/svg" p-id="1749" xmlns:xlink="http://www.w3.org/1999/xlink" width="200.1953125" height="200"><defs><style type="text/css"></style></defs><path d="M895.56792 65.266546 612.944854 65.266546c-35.401859 0-64.202729 29.073224-64.202729 64.808869l0 311.097317 0 11.588334 0 24.573248 24.573248 0 11.588334 0 310.664214 0c35.42848 0 64.250852-29.074248 64.250852-64.809893l0-282.449006C959.818772 94.33977 930.995377 65.266546 895.56792 65.266546zM910.672277 412.524421c0 8.637497-6.776073 15.663398-15.104356 15.663398L597.88862 428.187819 597.88862 130.075416c0-8.636473 6.754571-15.662374 15.056234-15.662374l282.622042 0c8.328283 0 15.104356 7.025901 15.104356 15.662374L910.671253 412.524421z" p-id="1750" fill="#ffffff"></path><path d="M65.468252 130.075416l0 282.449006c0 35.736669 28.822372 64.809893 64.250852 64.809893l310.664214 0 11.588334 0 24.573248 0 0-24.573248 0-11.588334 0-311.097317c0-35.735646-28.80087-64.808869-64.202729-64.808869L129.719103 65.266546C94.291647 65.266546 65.468252 94.33977 65.468252 130.075416zM114.614747 130.075416c0-8.636473 6.776073-15.662374 15.104356-15.662374L412.34217 114.413042c8.301662 0 15.056234 7.025901 15.056234 15.662374l0 298.112403L129.719103 428.187819c-8.328283 0-15.104356-7.026925-15.104356-15.663398L114.614747 130.075416z" p-id="1751" fill="#ffffff"></path><path d="M959.818772 894.775433l0-282.449006c0-35.736669-28.822372-64.809893-64.250852-64.809893L548.742125 547.516534l0 24.573248 0 11.588334 0 311.097317c0 35.735646 28.80087 64.808869 64.202729 64.808869l282.622042 0C930.995377 959.585326 959.818772 930.512103 959.818772 894.775433zM910.672277 894.775433c0 8.636473-6.776073 15.662374-15.104356 15.662374L612.944854 910.437807c-8.301662 0-15.056234-7.025901-15.056234-15.662374L597.88862 596.66303l297.678276 0c8.328283 0 15.104356 7.026925 15.104356 15.663398L910.671253 894.775433z" p-id="1752" fill="#ffffff"></path><path d="M129.719103 959.585326 412.34217 959.585326c35.401859 0 64.202729-29.073224 64.202729-64.808869L476.544899 547.516534 129.719103 547.516534c-35.42848 0-64.250852 29.074248-64.250852 64.809893l0 282.449006C65.468252 930.512103 94.291647 959.585326 129.719103 959.585326zM114.614747 612.326427c0-8.637497 6.776073-15.663398 15.104356-15.663398l297.678276 0 0 298.112403c0 8.636473-6.754571 15.662374-15.056234 15.662374L129.719103 910.437807c-8.328283 0-15.104356-7.025901-15.104356-15.662374L114.614747 612.326427z" p-id="1753" fill="#ffffff"></path></svg>