<?xml version="1.0" standalone="no"?><!DOCTYPE svg PUBLIC "-//W3C//DTD SVG 1.1//EN" "http://www.w3.org/Graphics/SVG/1.1/DTD/svg11.dtd"><svg t="1502788299067" class="icon" style="" viewBox="0 0 1024 1024" version="1.1" xmlns="http://www.w3.org/2000/svg" p-id="2939" xmlns:xlink="http://www.w3.org/1999/xlink" width="200" height="200"><defs><style type="text/css"></style></defs><path d="M703.355701 958.712041 297.259706 958.712041c-97.55792 0-131.029242-18.10945-131.029242-130.289392L166.230464 390.164141c0-14.950504 12.122085-27.073612 27.073612-27.073612 14.950504 0 27.073612 12.122085 27.073612 27.073612l0 438.258509c0 71.145363-1.797949 76.144214 76.883041 76.144214l406.095995 0c76.05007 0 85.554538-2.142803 85.554538-76.144214L788.911262 390.164141c0-14.950504 12.122085-27.073612 27.073612-27.073612 14.950504 0 27.072589 12.122085 27.072589 27.073612l0 438.258509C843.05644 931.904489 808.528042 958.712041 703.355701 958.712041z" p-id="2940" fill="#ffffff"></path><path d="M694.155155 241.261832c-14.950504 0-27.072589-12.122085-27.072589-27.073612l0-8.460696c0-78.231759-14.620999-86.295412-85.554538-86.295412L419.088402 119.432113c-73.961502 0-76.883041 10.482749-76.883041 86.295412l0 8.460696c0 14.950504-12.122085 27.073612-27.073612 27.073612-14.951527 0-27.073612-12.122085-27.073612-27.073612l0-8.460696c0-105.000426 27.601638-140.441613 131.029242-140.441613l162.438603 0c112.575961 0 139.701762 45.289486 139.701762 140.441613l0 8.460696C721.228767 229.139747 709.106682 241.261832 694.155155 241.261832z" p-id="2941" fill="#ffffff"></path><path d="M342.205361 823.346027c-7.482415 0-13.537318-6.079462-13.537318-13.537318l0-27.071565c0-7.482415 6.054903-13.537318 13.537318-13.537318 7.482415 0 13.536294 6.053879 13.536294 13.537318l0 27.071565C355.741655 817.266565 349.686752 823.346027 342.205361 823.346027z" p-id="2942" fill="#ffffff"></path><path d="M342.205361 728.58992c-7.482415 0-13.537318-6.079462-13.537318-13.537318L328.668043 484.920248c0-7.475252 6.054903-13.536294 13.537318-13.536294 7.482415 0 13.536294 6.061043 13.536294 13.536294l0 230.133378C355.741655 722.510458 349.686752 728.58992 342.205361 728.58992z" p-id="2943" fill="#ffffff"></path><path d="M504.64294 823.346027c-7.482415 0-13.536294-6.079462-13.536294-13.537318l0-324.889485c0-7.475252 6.053879-13.536294 13.536294-13.536294s13.537318 6.061043 13.537318 13.536294l0 324.889485C518.180258 817.266565 512.125355 823.346027 504.64294 823.346027z" p-id="2944" fill="#ffffff"></path><path d="M667.082566 823.346027c-7.482415 0-13.537318-6.079462-13.537318-13.537318l0-324.889485c0-7.475252 6.054903-13.536294 13.537318-13.536294s13.536294 6.061043 13.536294 13.536294l0 324.889485C680.617837 817.266565 674.563958 823.346027 667.082566 823.346027z" p-id="2945" fill="#ffffff"></path><path d="M951.349865 305.560254c0 61.674665-49.994648 111.676475-111.676475 111.676475l-656.522558 0c-61.680804 0-111.676475-50.001811-111.676475-111.676475l0-6.768147c0-61.674665 49.994648-111.676475 111.676475-111.676475l656.522558 0c61.680804 0 111.676475 50.001811 111.676475 111.676475L951.349865 305.560254zM897.203664 298.79313c0-31.772634-25.750477-57.530274-57.530274-57.530274l-656.522558 0c-31.778774 0-57.530274 25.75764-57.530274 57.530274l0 6.768147c0 31.772634 25.7515 57.530274 57.530274 57.530274l656.522558 0c31.779797 0 57.530274-25.75764 57.530274-57.530274L897.203664 298.79313z" p-id="2946" fill="#ffffff"></path></svg>