<?xml version="1.0" standalone="no"?><!DOCTYPE svg PUBLIC "-//W3C//DTD SVG 1.1//EN" "http://www.w3.org/Graphics/SVG/1.1/DTD/svg11.dtd"><svg t="1502700199104" class="icon" style="" viewBox="0 0 1071 1024" version="1.1" xmlns="http://www.w3.org/2000/svg" p-id="2560" xmlns:xlink="http://www.w3.org/1999/xlink" width="209.1796875" height="200"><defs><style type="text/css"></style></defs><path d="M1016.71293 958.440186c0 27.147907-21.932651 48.056558-48.056558 48.056558H576.869209V487.233488h439.843721v471.206698z m-179.700093-814.913488c31.339163-39.721674-29.243535-122.237023-95.065302-91.945675-62.70214 29.243535-107.615256 77.300093-146.265302 124.308837 33.434791 3.143442 66.869581 4.191256 100.280558 2.095628 41.793488-2.071814 117.021767-5.215256 141.050046-34.45879zM344.945116 52.628837c-44.93693-17.765209-71.060837 1.047814-89.850046 32.386977-10.47814 17.765209-20.908651 40.72186-5.23907 58.510884 42.841302 44.913116 161.934884 40.72186 241.354419 33.410976-37.626047-47.008744-83.586977-99.232744-146.265303-124.308837z m235.043721 397.002419V215.611535c-11.478326-1.047814-24.004465-2.095628-33.410977-4.191256h-2.095627 2.095627-2.095627-1.047814c-12.52614 2.095628-28.195721 4.191256-45.960931 5.23907v231.947907H16.884093v-184.939163c0-29.267349 22.980465-53.295628 53.271814-53.295628h219.397953c-58.510884-12.52614-103.424-37.602233-104.471813-83.586977-2.095628-54.295814 60.606512-143.12186 150.456558-123.261023 92.969674 20.884837 158.791442 92.969674 207.895814 154.624C593.586605 95.446326 664.647442 13.954977 762.832372 1.428837c81.491349-10.454326 148.36093 71.037023 140.002233 124.308837-7.310884 47.032558-52.247814 72.108651-109.710884 84.634791h216.278326c29.243535 0 53.271814 23.004279 53.271813 52.247814v185.986977l-482.661209 1.024z" fill="#ffffff" p-id="2561"></path><path d="M501.64093 1007.544558H108.829767a47.937488 47.937488 0 0 1-48.056558-48.080372V488.281302h439.843721V1007.568372h1.047814z" fill="#ffffff" p-id="2562"></path></svg>