<?xml version="1.0" standalone="no"?><!DOCTYPE svg PUBLIC "-//W3C//DTD SVG 1.1//EN" "http://www.w3.org/Graphics/SVG/1.1/DTD/svg11.dtd"><svg t="1502788346843" class="icon" style="" viewBox="0 0 1024 1024" version="1.1" xmlns="http://www.w3.org/2000/svg" p-id="3671" xmlns:xlink="http://www.w3.org/1999/xlink" width="200" height="200"><defs><style type="text/css"></style></defs><path d="M339.096684 554.41071c-0.608987 0.762483-1.231165 1.600915-1.497984 2.591243l-47.091872 172.647545c-2.742141 10.055183 0.063957 20.923814 7.504312 28.541649 5.573621 5.408333 12.911646 8.404302 20.70836 8.404302 2.589644 0 5.179888-0.303794 7.718767-0.989329l171.466346-46.749304c0.253828 0 0.380742 0.253828 0.584204 0.253828 1.980657 0 3.910349-0.735501 5.38275-2.235484l458.447573-458.394009c13.634756-13.635155 21.100694-32.198569 21.100694-52.411265 0-22.878488-9.725406-45.782759-26.713888-62.745858l-43.295646-43.370994c-16.987482-17.012865-39.917936-26.739271-62.77224-26.739271-20.212296 0-38.774711 7.465339-52.460232 21.051127L339.78222 552.837776C339.300147 553.268484 339.452044 553.903054 339.096684 554.41071M917.473745 213.612171l-45.530131 45.504548-73.842735-75.010943 44.895361-44.870378c7.084197-7.134563 20.872848-6.094268 28.998139 2.057605l43.296645 43.371394c4.544919 4.544319 7.134163 10.536856 7.134163 16.454244C922.425188 206.018719 920.647393 210.437323 917.473745 213.612171M420.633802 561.62282l330.794921-330.844887 73.842735 75.061508L495.111506 636.025175 420.633802 561.62282 420.633802 561.62282 420.633802 561.62282zM360.350674 695.748483l23.894799-87.7583 63.76157 63.762569L360.350674 695.748483 360.350674 695.748483 360.350674 695.748483zM946.52285 395.274004c-17.368024 0-31.614365 14.118428-31.664332 31.689914l0 427.365646c0 22.420799-18.181673 40.602272-40.629453 40.602272L151.251643 894.931836c-22.396815 0-40.692211-18.181673-40.692211-40.602272L110.559433 156.782701c0-22.422797 18.271012-40.655236 40.692211-40.655236l465.644693 0c17.41919 0 31.588583-14.169393 31.588583-31.613566 0-17.41959-14.169393-31.614965-31.588583-31.614965L146.439906 52.898935c-54.658741 0-99.109004 44.437671-99.109004 99.109604l0 707.145755c0 54.695716 44.450263 99.082622 99.109004 99.082622l732.562922 0c54.671733 0 99.135586-44.386706 99.135586-99.082622L978.138414 426.786039C978.035484 409.392432 963.842107 395.274004 946.52285 395.274004" p-id="3672" fill="#ffffff"></path></svg>