<?xml version="1.0" standalone="no"?><!DOCTYPE svg PUBLIC "-//W3C//DTD SVG 1.1//EN" "http://www.w3.org/Graphics/SVG/1.1/DTD/svg11.dtd"><svg t="1513737539652" class="icon" style="" viewBox="0 0 1024 1024" version="1.1" xmlns="http://www.w3.org/2000/svg" p-id="4896" xmlns:xlink="http://www.w3.org/1999/xlink" width="200" height="200"><defs><style type="text/css"></style></defs><path d="M398.222222 170.666667v56.888889H227.498667A113.720889 113.720889 0 0 0 113.777778 341.276444V796.444444C113.777778 859.306667 164.693333 910.222222 227.498667 910.222222H682.666667A113.720889 113.720889 0 0 0 796.444444 796.501333V625.777778h56.888889v170.723555A170.609778 170.609778 0 0 1 682.723556 967.111111H227.555556A170.609778 170.609778 0 0 1 56.888889 796.501333V341.333333A170.609778 170.609778 0 0 1 227.498667 170.666667H398.222222zM853.959111 40.220444l120.718222 120.661334c24.291556 24.405333 24.519111 55.921778 0 80.497778l-446.805333 446.748444-222.435556 61.610667c-30.947556 6.542222-46.876444-9.386667-40.277333-40.220445L326.769778 486.968889 773.518222 40.220444c24.576-24.576 56.149333-24.348444 80.440889 0zM371.256889 522.922667l-45.397333 166.115555 166.115555-45.397333-120.718222-120.718222z m38.513778-38.456889l120.661333 120.604444 383.886222-383.829333c20.878222-20.707556 19.569778-20.366222 0-40.220445l-80.440889-80.440888c-19.057778-20.366222-20.992-20.48-40.220444 0L409.770667 484.465778z" p-id="4897" fill="#bfbfbf"></path></svg>