<?xml version="1.0" standalone="no"?><!DOCTYPE svg PUBLIC "-//W3C//DTD SVG 1.1//EN" "http://www.w3.org/Graphics/SVG/1.1/DTD/svg11.dtd"><svg t="1513738296796" class="icon" style="" viewBox="0 0 1025 1024" version="1.1" xmlns="http://www.w3.org/2000/svg" p-id="6947" xmlns:xlink="http://www.w3.org/1999/xlink" width="200.1953125" height="200"><defs><style type="text/css"></style></defs><path d="M501.104001 1021.824C508.037334 1024.725333 515.930667 1024.725333 522.906667 1021.824 526.341334 1020.394667 529.434667 1018.346667 532.016001 1015.765333 532.037334 1015.765333 532.101334 1015.744 532.101334 1015.744L691.034667 856.832C702.149334 845.717333 702.149334 827.690667 691.034667 816.618667 679.941334 805.525333 661.957334 805.525333 650.864001 816.64L540.421334 927.061333 540.442667 591.701333C540.442667 576 527.728001 563.285333 512.026667 563.285333 496.325334 563.285333 483.610667 575.978667 483.610667 591.68L483.610667 927.061333 373.189334 816.64C362.074667 805.546667 344.090667 805.546667 333.061334 816.64 321.946667 827.754667 321.925334 845.738667 332.997334 856.832L491.952001 1015.744C492.762667 1016.554667 493.850667 1016.917333 494.768001 1017.621333 496.709334 1019.2 498.693334 1020.842667 501.104001 1021.824L501.104001 1021.824 501.104001 1021.824ZM522.906667 2.176C515.973334-0.725333 508.080001-0.725333 501.125334 2.176 497.690667 3.584 494.597334 5.632 491.973334 8.213333 491.952001 8.213333 491.909334 8.256 491.909334 8.256L332.976001 167.168C321.861334 178.282667 321.861334 196.288 332.976001 207.381333 344.069334 218.474667 362.053334 218.474667 373.146667 207.36L483.589334 96.938667 483.568001 432.298667C483.568001 448 496.282667 460.714667 511.984001 460.714667 527.685334 460.714667 540.421334 448.021333 540.421334 432.32L540.421334 96.938667 650.842667 207.36C661.957334 218.453333 679.962667 218.453333 690.992001 207.36 702.106667 196.245333 702.149334 178.261333 691.056001 167.168L532.101334 8.256C531.290667 7.402667 530.202667 7.061333 529.285334 6.357333 527.280001 4.8 525.317334 3.178667 522.906667 2.176L522.906667 2.176 522.906667 2.176ZM1021.829334 522.901333C1024.730667 515.968 1024.730667 508.074667 1021.829334 501.098667 1020.421334 497.664 1018.373334 494.570667 1015.792001 491.989333 1015.792001 491.968 1015.728001 491.925333 1015.728001 491.925333L856.837334 332.992C845.722667 321.877333 827.674667 321.877333 816.602667 332.992 805.552001 344.085333 805.552001 362.069333 816.666667 373.162667L927.045334 483.605333 591.685334 483.584C575.984001 483.584 563.290667 496.298667 563.290667 512 563.290667 527.701333 575.984001 540.416 591.685334 540.416L927.045334 540.416 816.666667 650.837333C805.552001 661.952 805.552001 679.936 816.666667 690.986667 827.781334 702.101333 845.765334 702.122667 856.858667 691.050667L1015.749334 532.096C1016.602667 531.285333 1016.965334 530.197333 1017.648001 529.28 1019.184001 527.274667 1020.826667 525.312 1021.829334 522.901333L1021.829334 522.901333 1021.829334 522.901333ZM2.16 501.098667C-0.72 508.032-0.72 515.925333 2.16 522.88 3.568 526.336 5.616 529.429333 8.197333 532.010667L8.24 532.074667 167.152 691.029333C178.266667 702.144 196.314667 702.144 207.408 691.029333 218.458667 679.914667 218.458667 661.930667 207.344 650.837333L96.965333 540.394667 432.325334 540.437333C448.026667 540.437333 460.720001 527.68 460.720001 512.021333 460.720001 496.32 448.026667 483.584 432.325334 483.584L96.965333 483.605333 207.344 373.184C218.458667 362.069333 218.458667 344.085333 207.344 333.056 196.229333 321.941333 178.245333 321.898667 167.152 332.992L8.24 491.946667C7.386667 492.757333 7.045333 493.845333 6.341333 494.762667 4.805333 496.725333 3.162667 498.688 2.16 501.098667L2.16 501.098667 2.16 501.098667Z" p-id="6948" fill="#1296db"></path></svg>