<?xml version="1.0" standalone="no"?><!DOCTYPE svg PUBLIC "-//W3C//DTD SVG 1.1//EN" "http://www.w3.org/Graphics/SVG/1.1/DTD/svg11.dtd"><svg t="1501468742730" class="icon" style="" viewBox="0 0 1024 1024" version="1.1" xmlns="http://www.w3.org/2000/svg" p-id="5108" xmlns:xlink="http://www.w3.org/1999/xlink" width="200" height="200"><defs><style type="text/css"></style></defs><path d="M921.5 432.1c19.9 0.2 36.2-15.6 36.6-35.6l1.7-110.4c0.5-50.4-42.7-94.8-93.4-95.5L166 183.5c-25.3-0.3-49.1 9.3-67.2 26.9-18 17.7-28.1 41.3-28.3 66.3l-1.7 110.1c-0.2 9.6 3.6 18.9 10.2 25.8 6 5.9 15.9 10.8 25.5 10.9 44.9 0.5 83.7 40.2 83.1 85.2-0.2 22.4-9.2 43.4-25.3 59.1-16.1 15.8-37.3 24.2-59.8 24-19.9-0.2-36.2 15.6-36.6 35.6l-1.7 110.3c-0.3 25.7 9.5 49.8 27.6 67.9 17.5 17.5 40.8 27.3 65.7 27.7l700.6 7.2c25.3 0.3 49.2-9.4 67.2-27.1 18-17.7 28-41.2 28.1-66.2l1.7-110.1c0.2-9.5-3.5-18.8-10.2-25.7-7.1-5.9-15.9-10.8-25.5-10.9-45-0.5-83.7-40.3-83.3-85.3 0.3-22.4 9.3-43.5 25.3-59.2 16.3-15.7 37.6-24.2 60.1-23.9z m-369.7 80.1v48.9h97.7c19 0 34.4 15.4 34.4 34.4s-15.4 34.4-34.4 34.4h-97.7v49.7c0 19-15.4 34.4-34.4 34.4S483 698.6 483 679.6v-49.7h-97.7c-19 0-34.4-15.4-34.4-34.4s15.4-34.4 34.4-34.4H483v-48.9h-97.7c-19 0-34.4-15.4-34.4-34.4s15.4-34.4 34.4-34.4H430l-54.6-54.7c-13.4-13.4-13.4-35.2 0-48.6 6.5-6.5 15.1-10.1 24.3-10.1s17.8 3.6 24.3 10.1l91.2 91.3 91.2-91.3c6.5-6.5 15.1-10.1 24.3-10.1 9.2 0 17.8 3.6 24.3 10.1 13.4 13.4 13.4 35.2 0 48.6l-54.7 54.7h49.1c19 0 34.4 15.4 34.4 34.4s-15.4 34.4-34.4 34.4h-97.6z" fill="#ffffff" p-id="5109"></path></svg>