<?xml version="1.0" standalone="no"?><!DOCTYPE svg PUBLIC "-//W3C//DTD SVG 1.1//EN" "http://www.w3.org/Graphics/SVG/1.1/DTD/svg11.dtd"><svg t="1513747436704" class="icon" style="" viewBox="0 0 1024 1024" version="1.1" xmlns="http://www.w3.org/2000/svg" p-id="18162" xmlns:xlink="http://www.w3.org/1999/xlink" width="200" height="200"><defs><style type="text/css"></style></defs><path d="M510.12507762 967.58469632c-250.93545643 0-454.35920043-203.46473813-454.35920043-454.43255751S259.18962119 58.73468416 510.12507762 58.73468416c250.93761365 0 454.36135765 203.44963527 454.36135765 454.41745465S761.06269127 967.58469632 510.12507762 967.58469632zM510.12507762 115.53470919c-219.57095083 0-397.56349099 178.01843029-397.56349099 397.61742962S290.55412565 910.77172679 510.12507762 910.77172679s397.56349099-178.02058752 397.56349099-397.61958798S729.69602845 115.53470919 510.12507762 115.53470919zM680.51004643 541.55862357L538.52508957 541.55862357l0 142.00653369c0 15.67685859-12.71452331 28.39569749-28.39785472 28.39569749-15.68333141 0-28.39569749-12.7188389-28.3956975-28.39569749l0-142.00653369-141.98927246 0c-15.68333141 0-28.39785472-12.71668053-28.39785472-28.40648476 0-15.67901582 12.71668053-28.39569749 28.39785472-28.3956975l141.98927246 0 0-142.0130065c0-15.67685859 12.71452331-28.38922467 28.3956975-28.38922468 15.68548864 0 28.39785472 12.71020771 28.39785472 28.38922468l0 142.0130065 141.984958 0c15.68548864 0 28.39785472 12.71668053 28.39785472 28.3956975C708.90790115 528.84194304 696.19553507 541.55862357 680.51004643 541.55862357z" p-id="18163" fill="#bfbfbf"></path></svg>