<?xml version="1.0" standalone="no"?><!DOCTYPE svg PUBLIC "-//W3C//DTD SVG 1.1//EN" "http://www.w3.org/Graphics/SVG/1.1/DTD/svg11.dtd"><svg t="1513738528960" class="icon" style="" viewBox="0 0 1024 1024" version="1.1" xmlns="http://www.w3.org/2000/svg" p-id="16101" xmlns:xlink="http://www.w3.org/1999/xlink" width="200" height="200"><defs><style type="text/css"></style></defs><path d="M874.048 874.048c-199.936 199.936-524.16 199.936-724.096 0-199.936-199.936-199.936-524.16 0-724.096 199.936-199.936 524.16-199.936 724.096 0 199.936 199.936 199.936 524.16 0 724.096zM512 48C255.744 48 48 255.744 48 512s207.744 464 464 464 464-207.744 464-464S768.256 48 512 48z m209.536 684.736c-15.808 15.744-41.344 15.744-57.152-0.064L511.808 580.096 359.424 732.48c-15.744 15.808-41.344 15.808-57.088 0.064-15.808-15.744-15.744-41.344 0-57.152L454.72 523.008 302.784 371.072c-15.808-15.808-15.808-41.408-0.064-57.152 15.808-15.744 41.344-15.744 57.152 0.064L511.808 465.92 664 313.792c15.744-15.808 41.344-15.808 57.088-0.064 15.744 15.808 15.744 41.344 0 57.152L568.896 523.008l152.576 152.576c15.808 15.808 15.808 41.344 0.064 57.152z" p-id="16102" fill="#e42d38"></path></svg>