<?xml version="1.0" standalone="no"?><!DOCTYPE svg PUBLIC "-//W3C//DTD SVG 1.1//EN" "http://www.w3.org/Graphics/SVG/1.1/DTD/svg11.dtd"><svg t="1502776321250" class="icon" style="" viewBox="0 0 1024 1024" version="1.1" xmlns="http://www.w3.org/2000/svg" p-id="3341" xmlns:xlink="http://www.w3.org/1999/xlink" width="200" height="200"><defs><style type="text/css"></style></defs><path d="M960 448V128c0-38.4-25.6-64-64-64H192c-32 0-64 25.6-64 64v768c0 38.4 25.6 64 64 64h704c38.4 0 64-25.6 64-64v-192l-275.2-236.8c6.4-12.8 12.8-32 12.8-44.8 25.6-134.4-89.6-249.6-224-224-76.8 12.8-134.4 70.4-147.2 147.2-25.6 134.4 89.6 249.6 224 224 38.4-6.4 76.8-25.6 102.4-57.6l243.2 217.6v128c0 19.2-12.8 32-32 32h-640c-19.2 0-32-6.4-32-25.6v-704c0-19.2 12.8-32 32-32h640c19.2 0 32 12.8 32 32V448h64z m-416 57.6C448 531.2 364.8 448 390.4 352c12.8-44.8 44.8-83.2 89.6-89.6 96-25.6 179.2 57.6 153.6 153.6-6.4 44.8-44.8 83.2-89.6 89.6z" fill="#ffffff" p-id="3342"></path><path d="M320 640h256v64H320zM320 768h448v64H320z" fill="#ffffff" p-id="3343"></path></svg>