<?xml version="1.0" standalone="no"?><!DOCTYPE svg PUBLIC "-//W3C//DTD SVG 1.1//EN" "http://www.w3.org/Graphics/SVG/1.1/DTD/svg11.dtd"><svg t="1502776167097" class="icon" style="" viewBox="0 0 1024 1024" version="1.1" xmlns="http://www.w3.org/2000/svg" p-id="3163" xmlns:xlink="http://www.w3.org/1999/xlink" width="200" height="200"><defs><style type="text/css"></style></defs><path d="M621.590162 950.928014H172.404353a99.200198 99.200198 0 0 1-99.185916-99.271606V172.6649a99.21448 99.21448 0 0 1 99.185916-99.285888H851.353016a99.143072 99.143072 0 0 1 99.185917 99.243043l-1.499571 449.100119v0.114253a36.589535 36.589535 0 0 0 73.193351 0.114253L1023.746565 172.807716v-0.114253A172.265014 172.265014 0 0 0 851.353016 0.328477H172.404353A172.107916 172.107916 0 0 0 0.167902 172.6649v678.991508A172.107916 172.107916 0 0 0 172.418635 1023.992831h449.171527a36.532408 36.532408 0 1 0 0-73.050535z" fill="#ffffff" p-id="3164"></path><path d="M1013.135315 961.639237l-139.474393-139.474394a219.608616 219.608616 0 1 0-51.656654 51.656654l139.474393 139.474393a36.532408 36.532408 0 0 0 51.656654-51.656653zM694.883484 841.33079a146.272449 146.272449 0 1 1 103.441842-42.844888 146.272449 146.272449 0 0 1-103.441842 42.844888z m109.697196-511.639374a36.63238 36.63238 0 0 0 0-73.279041l-584.975542-0.185661a36.63238 36.63238 0 0 0 0 73.250477l584.989824 0.214225z m-365.609714 219.165885a36.532408 36.532408 0 1 0 0-73.050535h-219.365828a36.489563 36.489563 0 0 0 0 72.979127h219.365828zM219.61942 694.944088a36.518126 36.518126 0 0 0 0 73.036253h146.243885a36.489563 36.489563 0 1 0 0-72.979126h-146.243885z" fill="#ffffff" p-id="3165"></path></svg>