<?xml version="1.0" standalone="no"?><!DOCTYPE svg PUBLIC "-//W3C//DTD SVG 1.1//EN" "http://www.w3.org/Graphics/SVG/1.1/DTD/svg11.dtd"><svg t="1502776079261" class="icon" style="" viewBox="0 0 1224 1024" version="1.1" xmlns="http://www.w3.org/2000/svg" p-id="2377" xmlns:xlink="http://www.w3.org/1999/xlink" width="239.0625" height="200"><defs><style type="text/css"></style></defs><path d="M845.986 962c-130.293 0-236.49-106.197-236.49-236.49s106.197-236.49 236.49-236.49 236.49 106.197 236.49 236.49-106.197 236.49-236.49 236.49zM845.986 542.565c-100.843 0-182.498 82.102-182.498 182.498 0 100.843 82.102 182.498 182.498 182.498s182.498-82.103 182.498-182.498-81.655-182.498-182.498-182.498zM175.783 860.265c-39.713 0-72.286-33.465-72.286-74.516v-625.582c0-41.051 32.573-74.516 72.286-74.516h807.189c39.713 0 72.286 33.465 72.286 74.516v329.301c0 14.725-11.602 26.772-26.326 26.772-14.279 0-26.326-12.047-26.326-26.772v-310.561l-392.216 301.19-2.23 2.23c-8.478 6.247-18.741 9.817-29.896 9.817s-21.418-3.569-29.896-9.817c-0.892-0.446-1.785-1.339-2.23-2.23l-389.985-301.19v606.842c0 11.602 8.924 20.525 19.633 20.525h397.57c14.279 0 26.326 12.047 26.326 26.772s-11.602 26.772-26.326 26.772h-397.57zM578.262 436.814l387.754-297.621-772.385 0.446 384.631 297.174zM878.56 824.568c-7.139 0-13.832-2.678-19.187-8.032-10.709-10.709-10.709-27.665 0-38.374l25.881-25.881h-143.678c-14.725 0-26.772-12.047-26.772-26.772s12.047-26.772 26.772-26.772h143.678l-25.881-25.881c-10.709-10.708-10.709-41.051 0-51.759 4.909-4.909 12.047-8.032 19.187-8.032s13.832 2.677 19.187 8.032l0.446 0.446 71.839 85.225c1.339 1.339 2.23 2.23 3.124 4.015l0.446 0.446 0.446 0.892c0.446 0.893 1.339 1.785 1.785 3.569 0 0.446 0.446 0.892 0.446 1.339 0.446 1.339 0.892 2.23 0.892 3.569 0.446 1.339 0.446 3.124 0.446 4.463v0.892c0 1.785 0 3.569-0.446 5.354 0 0.892-0.446 1.785-0.892 2.677v0.446c0 0.446-0.446 1.339-0.446 1.785-0.446 0.893-0.892 1.785-1.339 3.124-0.446 0.893-0.446 1.339-0.892 1.785-0.892 0.893-1.785 2.23-2.678 3.124l-73.177 73.178c-5.354 4.015-12.047 7.139-19.187 7.139z" p-id="2378" fill="#ffffff"></path></svg>