<?xml version="1.0" standalone="no"?><!DOCTYPE svg PUBLIC "-//W3C//DTD SVG 1.1//EN" "http://www.w3.org/Graphics/SVG/1.1/DTD/svg11.dtd"><svg t="1501468686511" class="icon" style="" viewBox="0 0 1024 1024" version="1.1" xmlns="http://www.w3.org/2000/svg" p-id="4373" xmlns:xlink="http://www.w3.org/1999/xlink" width="200" height="200"><defs><style type="text/css"></style></defs><path d="M393.387 694.472c0-30.507 4.587-59.84 13.333-87.467 8.64-28.16 21.44-53.44 37.013-76.907 16.213-23.467 34.667-44.053 56.747-62.187 21.44-18.24 45.653-32.32 71.787-43.413 1.707-4.053 2.88-8.213 5.227-14.72l4.053-11.2c0.533-3.52 1.707-7.04 2.88-10.027 5.227-1.813 9.813-4.693 14.507-8.853 4.053-3.52 7.573-8.853 10.987-15.253 2.88-6.507 5.227-15.893 6.4-26.987 0.533-8.213 0.533-15.253-0.533-21.12-1.707-5.867-2.88-10.56-5.227-14.08-2.347-4.053-5.227-7.573-8.64-9.92 0-21.76-1.707-42.88-4.053-63.36-2.88-18.24-6.933-37.547-13.333-57.493-5.76-19.947-15.573-38.72-28.907-55.147-5.76-7.04-13.867-14.72-23.68-21.653-9.813-7.04-21.44-13.547-34.133-19.413-12.693-5.227-26.56-10.027-41.067-13.547-14.507-3.52-28.907-5.333-43.947-5.333-11.52 0-23.68 1.173-36.48 2.987-12.693 1.707-25.493 5.227-38.187 10.56-12.693 5.227-25.493 12.907-37.013 21.76-11.52 8.747-22.613 20.48-32.96 35.2-10.453 15.253-18.56 32.32-23.68 51.627-5.227 19.307-8.64 37.547-10.987 53.973-1.707 19.947-2.88 39.253-2.88 59.307-4.587 5.227-7.467 10.56-9.813 16.427-2.347 5.867-4.053 12.373-4.587 19.413s0.533 15.253 2.88 24.107c2.347 9.387 5.76 15.787 9.28 20.587 3.52 4.693 6.933 8.853 9.813 11.2 4.053 2.347 7.573 4.053 10.987 5.333 2.347 8.213 5.227 16.427 7.573 24 2.347 7.04 5.227 13.547 8.64 19.947 2.88 6.507 6.933 11.733 10.987 15.253 8.64 7.68 16.747 14.72 23.68 21.76 6.933 7.04 10.987 16.96 12.16 28.8 0.533 8.853 0.533 15.787 0.533 22.933 0 6.4-1.707 12.907-4.053 19.307-2.88 6.507-6.933 12.907-12.693 19.413s-13.867 12.907-24.853 19.947c-8.64 5.867-19.093 10.56-30.08 14.72-10.987 4.16-22.613 7.68-34.133 11.2a1280.14 1280.14 0 0 0-34.667 10.56c-10.987 4.16-21.44 8.853-30.613 14.72-9.28 6.507-17.387 13.547-23.68 21.76-6.4 8.213-10.453 18.773-12.693 31.68-5.227 34.027-6.4 61.653-3.52 83.307 2.88 21.76 6.933 34.667 12.693 38.72 3.52 2.347 10.987 5.227 22.613 7.68 11.52 2.347 26.027 5.227 42.773 7.573 17.387 2.88 35.84 5.333 56.747 7.573 20.8 2.347 41.707 4.693 62.507 6.507 21.44 1.707 41.707 2.88 61.333 4.053 19.627 1.173 37.013 1.707 52.053 1.707h20.8c-12.16-21.76-21.973-45.227-28.907-69.867-7.467-24.853-10.987-50.667-10.987-77.653z m512-93.867c-12.693-29.973-30.08-55.787-52.053-78.613-21.973-22.293-47.467-39.893-76.907-52.8-29.547-12.907-60.8-19.413-94.293-19.413s-65.387 6.507-94.933 19.413c-29.547 12.907-54.933 30.507-76.907 52.8-21.973 22.293-39.36 48.747-52.053 78.613-12.693 29.973-19.093 61.653-19.093 95.68 0 34.027 6.4 65.707 19.093 95.68 12.693 29.973 30.08 55.787 52.053 78.613 21.973 22.293 47.467 39.893 76.907 52.8 29.547 12.907 61.333 19.413 94.933 19.413s64.747-6.507 94.293-19.413c29.547-12.907 54.933-30.507 76.907-52.8 21.973-22.293 39.36-48.747 52.053-78.613 12.693-29.973 19.093-61.653 19.093-95.68 0-34.027-6.293-65.707-19.093-95.68z m-70.507 43.413L675.2 811.165c-6.4 5.867-14.507 8.853-22.613 8.853-8.64 0-17.387-3.52-24.32-10.56l-85.013-89.173c-13.333-14.08-13.333-36.373 0-50.453 13.333-14.08 34.667-14.08 48 0l60.8 64 133.653-140.267c13.333-14.08 34.667-14.08 48 0 6.757 6.539 10.951 15.69 10.951 25.821 0 9.543-3.723 18.218-9.795 24.65z" fill="#ffffff" p-id="4374"></path></svg>