<?xml version="1.0" standalone="no"?><!DOCTYPE svg PUBLIC "-//W3C//DTD SVG 1.1//EN" "http://www.w3.org/Graphics/SVG/1.1/DTD/svg11.dtd"><svg t="1501467473319" class="icon" style="" viewBox="0 0 1404 1024" version="1.1" xmlns="http://www.w3.org/2000/svg" p-id="2795" xmlns:xlink="http://www.w3.org/1999/xlink" width="274.21875" height="200"><defs><style type="text/css"></style></defs><path d="M920.971 576.045c7.795 14.244 16.039 27.984 25.461 39.987v54.344c78.851 45.034 138.971 100.892 201.726 147.102v87.207h168.862v-60.568c-55.072-44.586-101.284-101.957-184.957-133.98v-91.3c43.744-54.568 72.513-139.252 72.513-203.016 0-101.957-73.58-184.621-164.263-184.621-25.293 0-48.959 6.954-70.439 18.451 3.253 21.817 4.879 44.361 4.879 67.466-0.056 78.515-18.788 174.638-53.782 258.929v0zM83.333 842.883v61.802h168.694v-88.945c62.867-47.501 121.137-104.368 200.437-149.514v-38.36c10.039-12.338 19.068-26.639 27.424-41.5-37.462-84.516-57.708-182.659-57.708-263.247 0-25.293 2.187-49.913 6.056-73.748-20.693-10.319-43.463-16.32-67.522-16.32-92.031 0-166.675 83.843-166.675 187.313 0 64.326 28.882 149.626 72.85 205.035v84.851c-83.113 31.518-129.83 88.217-183.555 132.633v0zM923.55 331.753c0-148.954-82.272-269.753-223.99-269.753-141.774 0-226.29 125.623-226.29 274.577 0 106.388 43.351 250.013 119.678 323.48v3.141c-133.811 37.126-206.213 113.902-286.914 173.461v125.343h788.173v-123.772c-81.038-58.493-157.759-134.372-288.317-172.62v-6.617c75.598-75.094 117.659-220.906 117.659-327.237v0z" p-id="2796" fill="#ffffff"></path></svg>