<?xml version="1.0" standalone="no"?><!DOCTYPE svg PUBLIC "-//W3C//DTD SVG 1.1//EN" "http://www.w3.org/Graphics/SVG/1.1/DTD/svg11.dtd"><svg t="1502700127914" class="icon" style="" viewBox="0 0 1024 1024" version="1.1" xmlns="http://www.w3.org/2000/svg" p-id="2388" xmlns:xlink="http://www.w3.org/1999/xlink" width="200" height="200"><defs><style type="text/css"></style></defs><path d="M948.9 592.6C934 517.7 796.2 478.5 660 478.5c-1.9 0-3.8 0.1-5.8 0.1V191.1c0-83.8-146-127.6-290.2-127.6S73.8 107.3 73.8 191.1v453.3c0 83.8 146 127.6 290.2 127.6h5.8v60.8c0 83.8 146 127.6 290.2 127.6s290.3-43.9 290.3-127.6V592.7h-1.4v-0.1zM660 910.9c-146.9 0-240.6-46.2-240.6-78 0-8.6 7-18.2 19.8-27.7 56 27.7 138.6 42 220.7 42s164.8-14.2 220.8-42c12.8 9.5 19.8 19.1 19.8 27.7 0.1 31.8-93.6 78-240.5 78zM123.4 644.5c0-8.6 7-18.2 19.8-27.7 56 27.7 138.7 41.9 220.8 41.9h5.8V722.4c-2 0-3.8 0.1-5.8 0.1-146.9 0-240.6-46.2-240.6-78z m730.4 118.2c-10.3 4.8-22 9.3-35.3 13.5C778 788.7 724 797.5 660 797.5s-117.9-8.8-158.4-21.3c-12.1-3.8-22.9-7.8-32.5-12.1-1-0.5-1.9-0.9-2.9-1.4-10.8-5-19.8-10.2-27-15.5-1.7-1.2-3.2-2.4-4.7-3.7-9.5-8-14.8-16.1-15-23.4 0-0.2-0.1-0.4-0.1-0.6 0-8.6 7-18.2 19.8-27.6 14.3 7 30.2 13.2 47.4 18.5 11.2 3.4 22.8 6.5 34.9 9.2 4.8 1.1 9.8 2.1 14.7 3 15.9 3 32.3 5.5 49 7.3 7.8 0.8 15.8 1.6 23.7 2.1 16.9 1.2 33.9 1.9 50.9 1.9s34.1-0.6 51-1.9c30.3-2.2 60-6.4 87.5-12.4 30.8-6.8 58.9-16.1 82.4-27.7 12.8 9.5 19.8 19.1 19.8 27.6 0 8.6-7 18.2-19.8 27.7-7.1 5.3-16.1 10.5-26.9 15.5zM170.2 574.4c-10.8-5-19.9-10.3-27-15.6-12.8-9.5-19.8-19.1-19.8-27.7 0-8.6 7-18.2 19.8-27.7 23.5 11.6 51.6 20.8 82.4 27.7 27.5 6.1 57.2 10.2 87.5 12.4 16.8 1.2 33.8 1.9 50.9 1.9 12.7 0 25.4-0.3 37.9-1-8.1 6.9-14.8 14.4-20 22.4-7.8 11.9-12.1 25-12.1 39.3v2.9c-2 0-3.8 0.1-5.8 0.1-64 0-118-8.8-158.4-21.3-13.4-4.1-25.1-8.7-35.4-13.4z m-46.8-156.6c0-8.5 7-18.2 19.8-27.6 23.4 11.6 51.6 20.8 82.4 27.6 27.5 6.1 57.1 10.3 87.5 12.4 16.8 1.2 33.9 1.9 50.9 1.9s34.1-0.6 50.9-1.9c30.4-2.2 60-6.3 87.5-12.4 30.8-6.8 58.9-16 82.3-27.6 12.8 9.5 19.9 19.1 19.9 27.6 0 8.6-7 18.2-19.8 27.7-7.2 5.3-16.2 10.6-27 15.6-10.3 4.8-22 9.3-35.3 13.5C481.9 487 428 495.8 364 495.8c-64.1 0-118-8.8-158.5-21.3-13.3-4.1-25-8.7-35.3-13.5-10.8-5-19.9-10.2-27.1-15.6-12.7-9.4-19.7-19-19.7-27.6z m0-113.3c0-8.6 7-18.2 19.8-27.6 23.5 11.6 51.6 20.8 82.4 27.6 27.6 6.1 57.2 10.3 87.6 12.5 16.8 1.2 33.7 1.9 50.7 1.9 16.9 0 33.9-0.6 50.7-1.9 30.4-2.2 60.1-6.3 87.7-12.5 30.8-6.8 59-16 82.4-27.6 12.8 9.5 19.9 19.1 19.9 27.6 0 8.6-7 18.2-19.9 27.7-7.2 5.3-16.2 10.5-27 15.6-10.3 4.7-22 9.3-35.3 13.5-40.5 12.6-94.4 21.3-158.4 21.3s-118-8.8-158.4-21.3c-13.3-4.1-25-8.7-35.3-13.5-10.8-5-19.9-10.2-27-15.6-12.9-9.5-19.9-19.2-19.9-27.7z" fill="#ffffff" p-id="2389"></path></svg>